<svg id="my-svg" width="100%" xmlns="http://www.w3.org/2000/svg" xmlns:xlink="http://www.w3.org/1999/xlink" class="erDiagram" style="max-width: 838.828px; background-color: white;" viewBox="0 0 838.828125 601.25" role="graphics-document document" aria-roledescription="er"><style>#my-svg{font-family:"trebuchet ms",verdana,arial,sans-serif;font-size:16px;fill:#333;}@keyframes edge-animation-frame{from{stroke-dashoffset:0;}}@keyframes dash{to{stroke-dashoffset:0;}}#my-svg .edge-animation-slow{stroke-dasharray:9,5!important;stroke-dashoffset:900;animation:dash 50s linear infinite;stroke-linecap:round;}#my-svg .edge-animation-fast{stroke-dasharray:9,5!important;stroke-dashoffset:900;animation:dash 20s linear infinite;stroke-linecap:round;}#my-svg .error-icon{fill:#552222;}#my-svg .error-text{fill:#552222;stroke:#552222;}#my-svg .edge-thickness-normal{stroke-width:1px;}#my-svg .edge-thickness-thick{stroke-width:3.5px;}#my-svg .edge-pattern-solid{stroke-dasharray:0;}#my-svg .edge-thickness-invisible{stroke-width:0;fill:none;}#my-svg .edge-pattern-dashed{stroke-dasharray:3;}#my-svg .edge-pattern-dotted{stroke-dasharray:2;}#my-svg .marker{fill:#333333;stroke:#333333;}#my-svg .marker.cross{stroke:#333333;}#my-svg svg{font-family:"trebuchet ms",verdana,arial,sans-serif;font-size:16px;}#my-svg p{margin:0;}#my-svg .entityBox{fill:#ECECFF;stroke:#9370DB;}#my-svg .relationshipLabelBox{fill:hsl(80, 100%, 96.2745098039%);opacity:0.7;background-color:hsl(80, 100%, 96.2745098039%);}#my-svg .relationshipLabelBox rect{opacity:0.5;}#my-svg .labelBkg{background-color:rgba(248.6666666666, 255, 235.9999999999, 0.5);}#my-svg .edgeLabel{background-color:rgba(232,232,232, 0.8);}#my-svg .edgeLabel .label rect{fill:rgba(232,232,232, 0.8);}#my-svg .edgeLabel .label text{fill:#333;}#my-svg .edgeLabel .label{fill:#9370DB;font-size:14px;}#my-svg .label{font-family:"trebuchet ms",verdana,arial,sans-serif;color:#333;}#my-svg .edge-pattern-dashed{stroke-dasharray:8,8;}#my-svg .node rect,#my-svg .node circle,#my-svg .node ellipse,#my-svg .node polygon{fill:#ECECFF;stroke:#9370DB;stroke-width:1px;}#my-svg .relationshipLine{stroke:#333333;stroke-width:1px;fill:none;}#my-svg .marker{fill:none!important;stroke:#333333!important;stroke-width:1;}#my-svg [data-look=neo].labelBkg{background-color:rgba(248.6666666666, 255, 235.9999999999, 0.5);}#my-svg .node .neo-node{stroke:#9370DB;}#my-svg [data-look="neo"].node rect,#my-svg [data-look="neo"].cluster rect,#my-svg [data-look="neo"].node polygon{stroke:#9370DB;filter:drop-shadow(1px 2px 2px rgba(185, 185, 185, 1));}#my-svg [data-look="neo"].node path{stroke:#9370DB;stroke-width:1px;}#my-svg [data-look="neo"].node .outer-path{filter:drop-shadow(1px 2px 2px rgba(185, 185, 185, 1));}#my-svg [data-look="neo"].node .neo-line path{stroke:#9370DB;filter:none;}#my-svg [data-look="neo"].node circle{stroke:#9370DB;filter:drop-shadow(1px 2px 2px rgba(185, 185, 185, 1));}#my-svg [data-look="neo"].node circle .state-start{fill:#000000;}#my-svg [data-look="neo"].icon-shape .icon{fill:#9370DB;filter:drop-shadow(1px 2px 2px rgba(185, 185, 185, 1));}#my-svg [data-look="neo"].icon-shape .icon-neo path{stroke:#9370DB;filter:drop-shadow(1px 2px 2px rgba(185, 185, 185, 1));}#my-svg :root{--mermaid-font-family:"trebuchet ms",verdana,arial,sans-serif;}</style><g><defs><marker id="my-svg_er-onlyOneStart" class="marker onlyOne er" refX="0" refY="9" markerWidth="18" markerHeight="18" orient="auto"><path d="M9,0 L9,18 M15,0 L15,18"/></marker></defs><defs><marker id="my-svg_er-onlyOneEnd" class="marker onlyOne er" refX="18" refY="9" markerWidth="18" markerHeight="18" orient="auto"><path d="M3,0 L3,18 M9,0 L9,18"/></marker></defs><defs><marker id="my-svg_er-zeroOrOneStart" class="marker zeroOrOne er" refX="0" refY="9" markerWidth="30" markerHeight="18" orient="auto"><circle fill="white" cx="21" cy="9" r="6"/><path d="M9,0 L9,18"/></marker></defs><defs><marker id="my-svg_er-zeroOrOneEnd" class="marker zeroOrOne er" refX="30" refY="9" markerWidth="30" markerHeight="18" orient="auto"><circle fill="white" cx="9" cy="9" r="6"/><path d="M21,0 L21,18"/></marker></defs><defs><marker id="my-svg_er-oneOrMoreStart" class="marker oneOrMore er" refX="18" refY="18" markerWidth="45" markerHeight="36" orient="auto"><path d="M0,18 Q 18,0 36,18 Q 18,36 0,18 M42,9 L42,27"/></marker></defs><defs><marker id="my-svg_er-oneOrMoreEnd" class="marker oneOrMore er" refX="27" refY="18" markerWidth="45" markerHeight="36" orient="auto"><path d="M3,9 L3,27 M9,18 Q27,0 45,18 Q27,36 9,18"/></marker></defs><defs><marker id="my-svg_er-zeroOrMoreStart" class="marker zeroOrMore er" refX="18" refY="18" markerWidth="57" markerHeight="36" orient="auto"><circle fill="white" cx="48" cy="18" r="6"/><path d="M0,18 Q18,0 36,18 Q18,36 0,18"/></marker></defs><defs><marker id="my-svg_er-zeroOrMoreEnd" class="marker zeroOrMore er" refX="39" refY="18" markerWidth="57" markerHeight="36" orient="auto"><circle fill="white" cx="9" cy="18" r="6"/><path d="M21,18 Q39,0 57,18 Q39,36 21,18"/></marker></defs><g class="root"><g class="clusters"/><g class="edgePaths"><path d="M352.094,347.648L303.078,366.165C254.063,384.682,156.031,421.716,107.016,448.65C58,475.583,58,492.417,58,500.833L58,509.25" id="my-svg-id_entity-SPEC-0_entity-PLAN-1_0" class="edge-thickness-normal edge-pattern-solid relationshipLine" style="undefined;;;undefined" data-edge="true" data-et="edge" data-id="id_entity-SPEC-0_entity-PLAN-1_0" data-points="W3sieCI6MzUyLjA5Mzc1LCJ5IjozNDcuNjQ3OTE2NjY2NjY2N30seyJ4Ijo1OCwieSI6NDU4Ljc1fSx7IngiOjU4LCJ5Ijo1MDkuMjV9XQ==" data-look="classic" marker-start="url(#my-svg_er-onlyOneStart)" marker-end="url(#my-svg_er-onlyOneEnd)"/><path d="M352.094,397.444L343.078,407.661C334.063,417.879,316.031,438.315,307.016,456.949C298,475.583,298,492.417,298,500.833L298,509.25" id="my-svg-id_entity-SPEC-0_entity-TASKS-2_1" class="edge-thickness-normal edge-pattern-solid relationshipLine" style="undefined;;;undefined" data-edge="true" data-et="edge" data-id="id_entity-SPEC-0_entity-TASKS-2_1" data-points="W3sieCI6MzUyLjA5Mzc1LCJ5IjozOTcuNDQzNzV9LHsieCI6Mjk4LCJ5Ijo0NTguNzV9LHsieCI6Mjk4LCJ5Ijo1MDkuMjV9XQ==" data-look="classic" marker-start="url(#my-svg_er-onlyOneStart)" marker-end="url(#my-svg_er-onlyOneEnd)"/><path d="M483.906,397.444L492.922,407.661C501.938,417.879,519.969,438.315,528.984,456.949C538,475.583,538,492.417,538,500.833L538,509.25" id="my-svg-id_entity-SPEC-0_entity-NOTES-3_2" class="edge-thickness-normal edge-pattern-solid relationshipLine" style="undefined;;;undefined" data-edge="true" data-et="edge" data-id="id_entity-SPEC-0_entity-NOTES-3_2" data-points="W3sieCI6NDgzLjkwNjI1LCJ5IjozOTcuNDQzNzV9LHsieCI6NTM4LCJ5Ijo0NTguNzV9LHsieCI6NTM4LCJ5Ijo1MDkuMjV9XQ==" data-look="classic" marker-start="url(#my-svg_er-onlyOneStart)" marker-end="url(#my-svg_er-onlyOneEnd)"/><path d="M483.906,347.551L533.158,366.084C582.409,384.617,680.911,421.684,730.163,448.633C779.414,475.583,779.414,492.417,779.414,500.833L779.414,509.25" id="my-svg-id_entity-SPEC-0_entity-DEBATE-4_3" class="edge-thickness-normal edge-pattern-solid relationshipLine" style="undefined;;;undefined" data-edge="true" data-et="edge" data-id="id_entity-SPEC-0_entity-DEBATE-4_3" data-points="W3sieCI6NDgzLjkwNjI1LCJ5IjozNDcuNTUwNTAxNTAyMzQ1NH0seyJ4Ijo3NzkuNDE0MDYyNSwieSI6NDU4Ljc1fSx7IngiOjc3OS40MTQwNjI1LCJ5Ijo1MDkuMjV9XQ==" data-look="classic" marker-start="url(#my-svg_er-onlyOneStart)" marker-end="url(#my-svg_er-zeroOrOneEnd)"/><path d="M418,136.25L418,144.667C418,153.083,418,169.917,418,186.75C418,203.583,418,220.417,418,228.833L418,237.25" id="my-svg-id_entity-MEETING-5_entity-SPEC-0_4" class="edge-thickness-normal edge-pattern-solid relationshipLine" style="undefined;;;undefined" data-edge="true" data-et="edge" data-id="id_entity-MEETING-5_entity-SPEC-0_4" data-points="W3sieCI6NDE4LCJ5IjoxMzYuMjV9LHsieCI6NDE4LCJ5IjoxODYuNzV9LHsieCI6NDE4LCJ5IjoyMzcuMjV9XQ==" data-look="classic" marker-start="url(#my-svg_er-onlyOneStart)" marker-end="url(#my-svg_er-zeroOrOneEnd)"/></g><g class="edgeLabels"><g class="edgeLabel" transform="translate(58, 458.75)"><g class="label" data-id="id_entity-SPEC-0_entity-PLAN-1_0" transform="translate(-11.2890625, -10.5)"><foreignObject width="22.578125" height="21"><div xmlns="http://www.w3.org/1999/xhtml" class="labelBkg" style="display: table-cell; white-space: nowrap; line-height: 1.5; max-width: 200px; text-align: center;"><span class="edgeLabel"><p>has</p></span></div></foreignObject></g></g><g class="edgeLabel" transform="translate(298, 458.75)"><g class="label" data-id="id_entity-SPEC-0_entity-TASKS-2_1" transform="translate(-11.2890625, -10.5)"><foreignObject width="22.578125" height="21"><div xmlns="http://www.w3.org/1999/xhtml" class="labelBkg" style="display: table-cell; white-space: nowrap; line-height: 1.5; max-width: 200px; text-align: center;"><span class="edgeLabel"><p>has</p></span></div></foreignObject></g></g><g class="edgeLabel" transform="translate(538, 458.75)"><g class="label" data-id="id_entity-SPEC-0_entity-NOTES-3_2" transform="translate(-11.2890625, -10.5)"><foreignObject width="22.578125" height="21"><div xmlns="http://www.w3.org/1999/xhtml" class="labelBkg" style="display: table-cell; white-space: nowrap; line-height: 1.5; max-width: 200px; text-align: center;"><span class="edgeLabel"><p>has</p></span></div></foreignObject></g></g><g class="edgeLabel" transform="translate(779.4140625, 458.75)"><g class="label" data-id="id_entity-SPEC-0_entity-DEBATE-4_3" transform="translate(-30.734375, -10.5)"><foreignObject width="61.46875" height="21"><div xmlns="http://www.w3.org/1999/xhtml" class="labelBkg" style="display: table-cell; white-space: nowrap; line-height: 1.5; max-width: 200px; text-align: center;"><span class="edgeLabel"><p>may-have</p></span></div></foreignObject></g></g><g class="edgeLabel" transform="translate(418, 186.75)"><g class="label" data-id="id_entity-MEETING-5_entity-SPEC-0_4" transform="translate(-39.3046875, -10.5)"><foreignObject width="78.609375" height="21"><div xmlns="http://www.w3.org/1999/xhtml" class="labelBkg" style="display: table-cell; white-space: nowrap; line-height: 1.5; max-width: 200px; text-align: center;"><span class="edgeLabel"><p>graduates-to</p></span></div></foreignObject></g></g></g><g class="nodes"><g class="node default" id="my-svg-entity-SPEC-0" data-look="classic" transform="translate(418, 322.75)"><g class="outer-path" style=""><path d="M-65.90625 -85.5 L65.90625 -85.5 L65.90625 85.5 L-65.90625 85.5" stroke="none" stroke-width="0" fill="#ECECFF"/><path d="M-65.90625 -85.5 C-16.51801946934654 -85.5, 32.87021106130692 -85.5, 65.90625 -85.5 M-65.90625 -85.5 C-20.08498458186913 -85.5, 25.73628083626174 -85.5, 65.90625 -85.5 M65.90625 -85.5 C65.90625 -24.91047172258741, 65.90625 35.67905655482518, 65.90625 85.5 M65.90625 -85.5 C65.90625 -36.89838390945686, 65.90625 11.703232181086278, 65.90625 85.5 M65.90625 85.5 C23.492479954432234 85.5, -18.921290091135532 85.5, -65.90625 85.5 M65.90625 85.5 C21.45903407221104 85.5, -22.98818185557792 85.5, -65.90625 85.5 M-65.90625 85.5 C-65.90625 32.03925821951994, -65.90625 -21.421483560960127, -65.90625 -85.5 M-65.90625 85.5 C-65.90625 49.52213419798054, -65.90625 13.544268395961083, -65.90625 -85.5" stroke="#9370DB" stroke-width="1.3" fill="none" stroke-dasharray="0 0"/></g><g style="" class="row-rect-odd"><path d="M-65.90625 -42.75 L65.90625 -42.75 L65.90625 0 L-65.90625 0" stroke="none" stroke-width="0" fill="hsl(240, 100%, 100%)"/><path d="M-65.90625 -42.75 C-14.965816097613292 -42.75, 35.974617804773416 -42.75, 65.90625 -42.75 M-65.90625 -42.75 C-18.562960221450716 -42.75, 28.780329557098568 -42.75, 65.90625 -42.75 M65.90625 -42.75 C65.90625 -27.938638900388824, 65.90625 -13.127277800777648, 65.90625 0 M65.90625 -42.75 C65.90625 -29.539321497178904, 65.90625 -16.328642994357804, 65.90625 0 M65.90625 0 C27.53947485153158 0, -10.82730029693684 0, -65.90625 0 M65.90625 0 C15.825489039261008 0, -34.255271921477984 0, -65.90625 0 M-65.90625 0 C-65.90625 -13.975500568823179, -65.90625 -27.951001137646358, -65.90625 -42.75 M-65.90625 0 C-65.90625 -11.619693894056216, -65.90625 -23.23938778811243, -65.90625 -42.75" stroke="#9370DB" stroke-width="1.3" fill="none" stroke-dasharray="0 0"/></g><g style="" class="row-rect-even"><path d="M-65.90625 0 L65.90625 0 L65.90625 42.75 L-65.90625 42.75" stroke="none" stroke-width="0" fill="hsl(240, 100%, 97.2745098039%)"/><path d="M-65.90625 0 C-36.817320016278146 0, -7.728390032556291 0, 65.90625 0 M-65.90625 0 C-26.28873544878389 0, 13.328779102432222 0, 65.90625 0 M65.90625 0 C65.90625 13.359625679489211, 65.90625 26.719251358978422, 65.90625 42.75 M65.90625 0 C65.90625 10.632761313106046, 65.90625 21.265522626212093, 65.90625 42.75 M65.90625 42.75 C27.52115196268067 42.75, -10.863946074638662 42.75, -65.90625 42.75 M65.90625 42.75 C26.994040448758163 42.75, -11.918169102483674 42.75, -65.90625 42.75 M-65.90625 42.75 C-65.90625 28.66751283745723, -65.90625 14.585025674914458, -65.90625 0 M-65.90625 42.75 C-65.90625 32.658734951809365, -65.90625 22.567469903618733, -65.90625 0" stroke="#9370DB" stroke-width="1.3" fill="none" stroke-dasharray="0 0"/></g><g style="" class="row-rect-odd"><path d="M-65.90625 42.75 L65.90625 42.75 L65.90625 85.5 L-65.90625 85.5" stroke="none" stroke-width="0" fill="hsl(240, 100%, 100%)"/><path d="M-65.90625 42.75 C-19.597131226204297 42.75, 26.711987547591406 42.75, 65.90625 42.75 M-65.90625 42.75 C-25.552433081614772 42.75, 14.801383836770455 42.75, 65.90625 42.75 M65.90625 42.75 C65.90625 59.202783155366006, 65.90625 75.65556631073201, 65.90625 85.5 M65.90625 42.75 C65.90625 56.39949580440989, 65.90625 70.04899160881978, 65.90625 85.5 M65.90625 85.5 C34.60905392565819 85.5, 3.3118578513163826 85.5, -65.90625 85.5 M65.90625 85.5 C32.767663846446425 85.5, -0.3709223071071506 85.5, -65.90625 85.5 M-65.90625 85.5 C-65.90625 76.71731577704558, -65.90625 67.93463155409117, -65.90625 42.75 M-65.90625 85.5 C-65.90625 69.49773229291335, -65.90625 53.49546458582672, -65.90625 42.75" stroke="#9370DB" stroke-width="1.3" fill="none" stroke-dasharray="0 0"/></g><g class="label name" transform="translate(-21.7890625, -76.125)" style=""><foreignObject width="43.578125" height="24"><div xmlns="http://www.w3.org/1999/xhtml" style="display: table-cell; white-space: nowrap; line-height: 1.5; max-width: 138px; text-align: start;"><span class="nodeLabel"><p>SPEC</p></span></div></foreignObject></g><g class="label attribute-type" transform="translate(-53.40625, -33.375)" style=""><foreignObject width="39.125" height="24"><div xmlns="http://www.w3.org/1999/xhtml" style="display: table-cell; white-space: nowrap; line-height: 1.5; max-width: 136px; text-align: start;"><span class="nodeLabel"><p>string</p></span></div></foreignObject></g><g class="label attribute-name" transform="translate(10.71875, -33.375)" style=""><foreignObject width="26.703125" height="24"><div xmlns="http://www.w3.org/1999/xhtml" style="display: table-cell; white-space: nowrap; line-height: 1.5; max-width: 124px; text-align: start;"><span class="nodeLabel"><p>nnn</p></span></div></foreignObject></g><g class="label attribute-keys" transform="translate(78.40625, -33.375)" style=""><foreignObject width="0" height="0"><div xmlns="http://www.w3.org/1999/xhtml" style="display: table-cell; white-space: nowrap; line-height: 1.5; max-width: 100px; text-align: start;"><span class="nodeLabel"></span></div></foreignObject></g><g class="label attribute-comment" transform="translate(78.40625, -33.375)" style=""><foreignObject width="0" height="0"><div xmlns="http://www.w3.org/1999/xhtml" style="display: table-cell; white-space: nowrap; line-height: 1.5; max-width: 100px; text-align: start;"><span class="nodeLabel"></span></div></foreignObject></g><g class="label attribute-type" transform="translate(-53.40625, 9.375)" style=""><foreignObject width="39.125" height="24"><div xmlns="http://www.w3.org/1999/xhtml" style="display: table-cell; white-space: nowrap; line-height: 1.5; max-width: 136px; text-align: start;"><span class="nodeLabel"><p>string</p></span></div></foreignObject></g><g class="label attribute-name" transform="translate(10.71875, 9.375)" style=""><foreignObject width="29.359375" height="24"><div xmlns="http://www.w3.org/1999/xhtml" style="display: table-cell; white-space: nowrap; line-height: 1.5; max-width: 127px; text-align: start;"><span class="nodeLabel"><p>slug</p></span></div></foreignObject></g><g class="label attribute-keys" transform="translate(78.40625, 9.375)" style=""><foreignObject width="0" height="0"><div xmlns="http://www.w3.org/1999/xhtml" style="display: table-cell; white-space: nowrap; line-height: 1.5; max-width: 100px; text-align: start;"><span class="nodeLabel"></span></div></foreignObject></g><g class="label attribute-comment" transform="translate(78.40625, 9.375)" style=""><foreignObject width="0" height="0"><div xmlns="http://www.w3.org/1999/xhtml" style="display: table-cell; white-space: nowrap; line-height: 1.5; max-width: 100px; text-align: start;"><span class="nodeLabel"></span></div></foreignObject></g><g class="label attribute-type" transform="translate(-53.40625, 52.125)" style=""><foreignObject width="39.125" height="24"><div xmlns="http://www.w3.org/1999/xhtml" style="display: table-cell; white-space: nowrap; line-height: 1.5; max-width: 136px; text-align: start;"><span class="nodeLabel"><p>string</p></span></div></foreignObject></g><g class="label attribute-name" transform="translate(10.71875, 52.125)" style=""><foreignObject width="42.6875" height="24"><div xmlns="http://www.w3.org/1999/xhtml" style="display: table-cell; white-space: nowrap; line-height: 1.5; max-width: 136px; text-align: start;"><span class="nodeLabel"><p>status</p></span></div></foreignObject></g><g class="label attribute-keys" transform="translate(78.40625, 52.125)" style=""><foreignObject width="0" height="0"><div xmlns="http://www.w3.org/1999/xhtml" style="display: table-cell; white-space: nowrap; line-height: 1.5; max-width: 100px; text-align: start;"><span class="nodeLabel"></span></div></foreignObject></g><g class="label attribute-comment" transform="translate(78.40625, 52.125)" style=""><foreignObject width="0" height="0"><div xmlns="http://www.w3.org/1999/xhtml" style="display: table-cell; white-space: nowrap; line-height: 1.5; max-width: 100px; text-align: start;"><span class="nodeLabel"></span></div></foreignObject></g><g class="divider"><path d="M-65.90625 -42.75005 L-65.90625 -42.74995 L65.90625 -42.74995 L65.90625 -42.75005" stroke="none" stroke-width="0" fill="#ECECFF" fill-rule="evenodd"/><path d="M-65.90625 -42.75005 C-65.90625 -42.75002253967484, -65.90625 -42.74999507934967, -65.90625 -42.74995 M-65.90625 -42.75005 C-65.90625 -42.750025302293174, -65.90625 -42.75000060458635, -65.90625 -42.74995 M-65.90625 -42.74995 C-19.63949711388745 -42.74995, 26.627255772225098 -42.74995, 65.90625 -42.74995 M-65.90625 -42.74995 C-20.575560535700454 -42.74995, 24.755128928599092 -42.74995, 65.90625 -42.74995 M65.90625 -42.74995 C65.90625 -42.74997380311021, 65.90625 -42.74999760622042, 65.90625 -42.75005 M65.90625 -42.74995 C65.90625 -42.749983631389185, 65.90625 -42.75001726277838, 65.90625 -42.75005 M65.90625 -42.75005 C32.814015098374654 -42.75005, -0.2782198032506926 -42.75005, -65.90625 -42.75005 M65.90625 -42.75005 C37.25462219149573 -42.75005, 8.602994382991447 -42.75005, -65.90625 -42.75005" stroke="#9370DB" stroke-width="1.3" fill="none" stroke-dasharray="0 0"/></g><g class="divider"><path d="M-1.7813 -42.75 L-1.7812 -42.75 L-1.7812 85.5 L-1.7813 85.5" stroke="none" stroke-width="0" fill="#ECECFF" fill-rule="evenodd"/><path d="M-1.7813 -42.75 C-1.7812739111389702 -42.75, -1.7812478222779402 -42.75, -1.7812 -42.75 M-1.7813 -42.75 C-1.7812700795101484 -42.75, -1.7812401590202964 -42.75, -1.7812 -42.75 M-1.7812 -42.75 C-1.7812 -14.69692128216792, -1.7812 13.356157435664159, -1.7812 85.5 M-1.7812 -42.75 C-1.7812 7.326230802997657, -1.7812 57.40246160599531, -1.7812 85.5 M-1.7812 85.5 C-1.7812235350230747 85.5, -1.7812470700461496 85.5, -1.7813 85.5 M-1.7812 85.5 C-1.781235632019482 85.5, -1.781271264038964 85.5, -1.7813 85.5 M-1.7813 85.5 C-1.7813 47.85125540189452, -1.7813 10.202510803789039, -1.7813 -42.75 M-1.7813 85.5 C-1.7813 52.709935452256076, -1.7813 19.919870904512152, -1.7813 -42.75" stroke="#9370DB" stroke-width="1.3" fill="none" stroke-dasharray="0 0"/></g><g class="divider"><path d="M-65.90625 -42.75005 L-65.90625 -42.74995 L65.90625 -42.74995 L65.90625 -42.75005" stroke="none" stroke-width="0" fill="#ECECFF" fill-rule="evenodd"/><path d="M-65.90625 -42.75005 C-65.90625 -42.750024984748926, -65.90625 -42.74999996949786, -65.90625 -42.74995 M-65.90625 -42.75005 C-65.90625 -42.75001246539672, -65.90625 -42.749974930793435, -65.90625 -42.74995 M-65.90625 -42.74995 C-18.175882501218467 -42.74995, 29.554484997563065 -42.74995, 65.90625 -42.74995 M-65.90625 -42.74995 C-24.074709485856886 -42.74995, 17.75683102828623 -42.74995, 65.90625 -42.74995 M65.90625 -42.74995 C65.90625 -42.749978635975744, 65.90625 -42.75000727195149, 65.90625 -42.75005 M65.90625 -42.74995 C65.90625 -42.74998521810188, 65.90625 -42.75002043620376, 65.90625 -42.75005 M65.90625 -42.75005 C24.67864029395718 -42.75005, -16.54896941208564 -42.75005, -65.90625 -42.75005 M65.90625 -42.75005 C27.01840797726019 -42.75005, -11.869434045479622 -42.75005, -65.90625 -42.75005" stroke="#9370DB" stroke-width="1.3" fill="none" stroke-dasharray="0 0"/></g></g><g class="node default" id="my-svg-entity-PLAN-1" data-look="classic" transform="translate(58, 551.25)"><rect class="basic label-container" style="" x="-50" y="-42" width="100" height="84"/><g class="label" style="" transform="translate(-20.8984375, -12)"><rect/><foreignObject width="41.796875" height="24"><div xmlns="http://www.w3.org/1999/xhtml" style="display: table-cell; white-space: nowrap; line-height: 1.5; max-width: 100px; text-align: center;"><span class="nodeLabel markdown-node-label"><p>PLAN</p></span></div></foreignObject></g></g><g class="node default" id="my-svg-entity-TASKS-2" data-look="classic" transform="translate(298, 551.25)"><rect class="basic label-container" style="" x="-50" y="-42" width="100" height="84"/><g class="label" style="" transform="translate(-25.640625, -12)"><rect/><foreignObject width="51.28125" height="24"><div xmlns="http://www.w3.org/1999/xhtml" style="display: table-cell; white-space: nowrap; line-height: 1.5; max-width: 100px; text-align: center;"><span class="nodeLabel markdown-node-label"><p>TASKS</p></span></div></foreignObject></g></g><g class="node default" id="my-svg-entity-NOTES-3" data-look="classic" transform="translate(538, 551.25)"><rect class="basic label-container" style="" x="-50" y="-42" width="100" height="84"/><g class="label" style="" transform="translate(-27.5625, -12)"><rect/><foreignObject width="55.125" height="24"><div xmlns="http://www.w3.org/1999/xhtml" style="display: table-cell; white-space: nowrap; line-height: 1.5; max-width: 100px; text-align: center;"><span class="nodeLabel markdown-node-label"><p>NOTES</p></span></div></foreignObject></g></g><g class="node default" id="my-svg-entity-DEBATE-4" data-look="classic" transform="translate(779.4140625, 551.25)"><rect class="basic label-container" style="" x="-51.4140625" y="-42" width="102.828125" height="84"/><g class="label" style="" transform="translate(-31.4140625, -12)"><rect/><foreignObject width="62.828125" height="24"><div xmlns="http://www.w3.org/1999/xhtml" style="display: table-cell; white-space: nowrap; line-height: 1.5; max-width: 200px; text-align: center;"><span class="nodeLabel markdown-node-label"><p>DEBATE</p></span></div></foreignObject></g></g><g class="node default" id="my-svg-entity-MEETING-5" data-look="classic" transform="translate(418, 72.125)"><g class="outer-path" style=""><path d="M-77.9140625 -64.125 L77.9140625 -64.125 L77.9140625 64.125 L-77.9140625 64.125" stroke="none" stroke-width="0" fill="#ECECFF"/><path d="M-77.9140625 -64.125 C-44.82339259416862 -64.125, -11.732722688337233 -64.125, 77.9140625 -64.125 M-77.9140625 -64.125 C-45.079763710317344 -64.125, -12.245464920634689 -64.125, 77.9140625 -64.125 M77.9140625 -64.125 C77.9140625 -23.69749457440893, 77.9140625 16.730010851182143, 77.9140625 64.125 M77.9140625 -64.125 C77.9140625 -36.34200720331427, 77.9140625 -8.559014406628542, 77.9140625 64.125 M77.9140625 64.125 C34.943569076942445 64.125, -8.02692434611511 64.125, -77.9140625 64.125 M77.9140625 64.125 C17.95065325262921 64.125, -42.01275599474158 64.125, -77.9140625 64.125 M-77.9140625 64.125 C-77.9140625 29.42435399253778, -77.9140625 -5.276292014924437, -77.9140625 -64.125 M-77.9140625 64.125 C-77.9140625 22.84736939288667, -77.9140625 -18.43026121422666, -77.9140625 -64.125" stroke="#9370DB" stroke-width="1.3" fill="none" stroke-dasharray="0 0"/></g><g style="" class="row-rect-odd"><path d="M-77.9140625 -21.375 L77.9140625 -21.375 L77.9140625 21.375 L-77.9140625 21.375" stroke="none" stroke-width="0" fill="hsl(240, 100%, 100%)"/><path d="M-77.9140625 -21.375 C-27.00475148080357 -21.375, 23.90455953839286 -21.375, 77.9140625 -21.375 M-77.9140625 -21.375 C-34.26164485574573 -21.375, 9.390772788508542 -21.375, 77.9140625 -21.375 M77.9140625 -21.375 C77.9140625 -11.57233570975784, 77.9140625 -1.7696714195156815, 77.9140625 21.375 M77.9140625 -21.375 C77.9140625 -5.336397385971814, 77.9140625 10.702205228056371, 77.9140625 21.375 M77.9140625 21.375 C18.89777746344614 21.375, -40.11850757310772 21.375, -77.9140625 21.375 M77.9140625 21.375 C37.01367767638009 21.375, -3.886707147239818 21.375, -77.9140625 21.375 M-77.9140625 21.375 C-77.9140625 12.114370453228736, -77.9140625 2.853740906457471, -77.9140625 -21.375 M-77.9140625 21.375 C-77.9140625 10.859918929905911, -77.9140625 0.3448378598118218, -77.9140625 -21.375" stroke="#9370DB" stroke-width="1.3" fill="none" stroke-dasharray="0 0"/></g><g style="" class="row-rect-even"><path d="M-77.9140625 21.375 L77.9140625 21.375 L77.9140625 64.125 L-77.9140625 64.125" stroke="none" stroke-width="0" fill="hsl(240, 100%, 97.2745098039%)"/><path d="M-77.9140625 21.375 C-32.109012995008285 21.375, 13.69603650998343 21.375, 77.9140625 21.375 M-77.9140625 21.375 C-29.866140133958154 21.375, 18.18178223208369 21.375, 77.9140625 21.375 M77.9140625 21.375 C77.9140625 37.38403120442164, 77.9140625 53.39306240884328, 77.9140625 64.125 M77.9140625 21.375 C77.9140625 30.391688220857787, 77.9140625 39.408376441715575, 77.9140625 64.125 M77.9140625 64.125 C27.85307896066002 64.125, -22.20790457867996 64.125, -77.9140625 64.125 M77.9140625 64.125 C44.028231007708904 64.125, 10.142399515417807 64.125, -77.9140625 64.125 M-77.9140625 64.125 C-77.9140625 50.12293533900332, -77.9140625 36.120870678006646, -77.9140625 21.375 M-77.9140625 64.125 C-77.9140625 51.79225677750061, -77.9140625 39.459513555001216, -77.9140625 21.375" stroke="#9370DB" stroke-width="1.3" fill="none" stroke-dasharray="0 0"/></g><g class="label name" transform="translate(-36.4453125, -54.75)" style=""><foreignObject width="72.890625" height="24"><div xmlns="http://www.w3.org/1999/xhtml" style="display: table-cell; white-space: nowrap; line-height: 1.5; max-width: 172px; text-align: start;"><span class="nodeLabel"><p>MEETING</p></span></div></foreignObject></g><g class="label attribute-type" transform="translate(-65.4140625, -12)" style=""><foreignObject width="39.125" height="24"><div xmlns="http://www.w3.org/1999/xhtml" style="display: table-cell; white-space: nowrap; line-height: 1.5; max-width: 136px; text-align: start;"><span class="nodeLabel"><p>string</p></span></div></foreignObject></g><g class="label attribute-name" transform="translate(-1.2890625, -12)" style=""><foreignObject width="22.234375" height="24"><div xmlns="http://www.w3.org/1999/xhtml" style="display: table-cell; white-space: nowrap; line-height: 1.5; max-width: 122px; text-align: start;"><span class="nodeLabel"><p>tier</p></span></div></foreignObject></g><g class="label attribute-keys" transform="translate(90.4140625, -12)" style=""><foreignObject width="0" height="0"><div xmlns="http://www.w3.org/1999/xhtml" style="display: table-cell; white-space: nowrap; line-height: 1.5; max-width: 100px; text-align: start;"><span class="nodeLabel"></span></div></foreignObject></g><g class="label attribute-comment" transform="translate(90.4140625, -12)" style=""><foreignObject width="0" height="0"><div xmlns="http://www.w3.org/1999/xhtml" style="display: table-cell; white-space: nowrap; line-height: 1.5; max-width: 100px; text-align: start;"><span class="nodeLabel"></span></div></foreignObject></g><g class="label attribute-type" transform="translate(-65.4140625, 30.75)" style=""><foreignObject width="39.125" height="24"><div xmlns="http://www.w3.org/1999/xhtml" style="display: table-cell; white-space: nowrap; line-height: 1.5; max-width: 136px; text-align: start;"><span class="nodeLabel"><p>string</p></span></div></foreignObject></g><g class="label attribute-name" transform="translate(-1.2890625, 30.75)" style=""><foreignObject width="66.703125" height="24"><div xmlns="http://www.w3.org/1999/xhtml" style="display: table-cell; white-space: nowrap; line-height: 1.5; max-width: 159px; text-align: start;"><span class="nodeLabel"><p>synthesis</p></span></div></foreignObject></g><g class="label attribute-keys" transform="translate(90.4140625, 30.75)" style=""><foreignObject width="0" height="0"><div xmlns="http://www.w3.org/1999/xhtml" style="display: table-cell; white-space: nowrap; line-height: 1.5; max-width: 100px; text-align: start;"><span class="nodeLabel"></span></div></foreignObject></g><g class="label attribute-comment" transform="translate(90.4140625, 30.75)" style=""><foreignObject width="0" height="0"><div xmlns="http://www.w3.org/1999/xhtml" style="display: table-cell; white-space: nowrap; line-height: 1.5; max-width: 100px; text-align: start;"><span class="nodeLabel"></span></div></foreignObject></g><g class="divider"><path d="M-77.9140625 -21.37505 L-77.9140625 -21.37495 L77.9140625 -21.37495 L77.9140625 -21.37505" stroke="none" stroke-width="0" fill="#ECECFF" fill-rule="evenodd"/><path d="M-77.9140625 -21.37505 C-77.9140625 -21.375012660679538, -77.9140625 -21.37497532135907, -77.9140625 -21.37495 M-77.9140625 -21.37505 C-77.9140625 -21.37502019250588, -77.9140625 -21.37499038501176, -77.9140625 -21.37495 M-77.9140625 -21.37495 C-23.25726787660882 -21.37495, 31.399526746782357 -21.37495, 77.9140625 -21.37495 M-77.9140625 -21.37495 C-43.15773548185788 -21.37495, -8.401408463715754 -21.37495, 77.9140625 -21.37495 M77.9140625 -21.37495 C77.9140625 -21.37497794181223, 77.9140625 -21.375005883624457, 77.9140625 -21.37505 M77.9140625 -21.37495 C77.9140625 -21.37498681615602, 77.9140625 -21.375023632312047, 77.9140625 -21.37505 M77.9140625 -21.37505 C24.08811564811497 -21.37505, -29.737831203770057 -21.37505, -77.9140625 -21.37505 M77.9140625 -21.37505 C20.539872685598567 -21.37505, -36.834317128802866 -21.37505, -77.9140625 -21.37505" stroke="#9370DB" stroke-width="1.3" fill="none" stroke-dasharray="0 0"/></g><g class="divider"><path d="M-13.7891125 -21.375 L-13.7890125 -21.375 L-13.7890125 64.125 L-13.7891125 64.125" stroke="none" stroke-width="0" fill="#ECECFF" fill-rule="evenodd"/><path d="M-13.7891125 -21.375 C-13.789080373701248 -21.375, -13.789048247402498 -21.375, -13.7890125 -21.375 M-13.7891125 -21.375 C-13.789087666727806 -21.375, -13.789062833455612 -21.375, -13.7890125 -21.375 M-13.7890125 -21.375 C-13.7890125 0.6985726842301005, -13.7890125 22.7721453684602, -13.7890125 64.125 M-13.7890125 -21.375 C-13.7890125 8.845537187259808, -13.7890125 39.066074374519616, -13.7890125 64.125 M-13.7890125 64.125 C-13.78903261971864 64.125, -13.789052739437281 64.125, -13.7891125 64.125 M-13.7890125 64.125 C-13.789038207869714 64.125, -13.789063915739428 64.125, -13.7891125 64.125 M-13.7891125 64.125 C-13.7891125 37.69043449897349, -13.7891125 11.255868997946969, -13.7891125 -21.375 M-13.7891125 64.125 C-13.7891125 33.17322663923237, -13.7891125 2.221453278464743, -13.7891125 -21.375" stroke="#9370DB" stroke-width="1.3" fill="none" stroke-dasharray="0 0"/></g><g class="divider"><path d="M-77.9140625 -21.37505 L-77.9140625 -21.37495 L77.9140625 -21.37495 L77.9140625 -21.37505" stroke="none" stroke-width="0" fill="#ECECFF" fill-rule="evenodd"/><path d="M-77.9140625 -21.37505 C-77.9140625 -21.375026230057, -77.9140625 -21.375002460114, -77.9140625 -21.37495 M-77.9140625 -21.37505 C-77.9140625 -21.375024197983223, -77.9140625 -21.374998395966443, -77.9140625 -21.37495 M-77.9140625 -21.37495 C-17.90179734054169 -21.37495, 42.11046781891662 -21.37495, 77.9140625 -21.37495 M-77.9140625 -21.37495 C-33.90129026224767 -21.37495, 10.11148197550466 -21.37495, 77.9140625 -21.37495 M77.9140625 -21.37495 C77.9140625 -21.37497665635482, 77.9140625 -21.375003312709648, 77.9140625 -21.37505 M77.9140625 -21.37495 C77.9140625 -21.374970439959547, 77.9140625 -21.374990879919093, 77.9140625 -21.37505 M77.9140625 -21.37505 C27.888082145625738 -21.37505, -22.137898208748524 -21.37505, -77.9140625 -21.37505 M77.9140625 -21.37505 C17.434694839472208 -21.37505, -43.044672821055585 -21.37505, -77.9140625 -21.37505" stroke="#9370DB" stroke-width="1.3" fill="none" stroke-dasharray="0 0"/></g></g></g></g></g><defs><filter id="my-svg-drop-shadow" height="130%" width="130%"><feDropShadow dx="4" dy="4" stdDeviation="0" flood-opacity="0.06" flood-color="#000000"/></filter></defs><defs><filter id="my-svg-drop-shadow-small" height="150%" width="150%"><feDropShadow dx="2" dy="2" stdDeviation="0" flood-opacity="0.06" flood-color="#000000"/></filter></defs></svg>